<svg width="39" height="38" viewBox="0 0 39 38" fill="none" xmlns="http://www.w3.org/2000/svg">
<path d="M13.5 36H7C4.23858 36 2 33.7614 2 31V16.8412C2 15.283 2.72645 13.8139 3.96469 12.8679L16.4647 3.31877C18.2567 1.9498 20.7433 1.9498 22.5353 3.31877L35.0353 12.8679C36.2735 13.8139 37 15.283 37 16.8412L37 31C37 33.7614 34.7614 36 32 36H24" stroke="#156B55" stroke-width="3"/>
<path d="M25 37V26C25 23.2386 22.7614 21 20 21H18C15.2386 21 13 23.2386 13 26V37" stroke="#156B55" stroke-width="3"/>
</svg>
