<svg width="38" height="41" viewBox="0 0 38 41" fill="none" xmlns="http://www.w3.org/2000/svg">
<path d="M1.82799 6.05702L11.828 2.39327C12.1543 2.27373 12.5 2.51526 12.5 2.86275V33.4735C12.5 33.6833 12.369 33.8708 12.172 33.943L2.17201 37.6067C1.84572 37.7263 1.5 37.4847 1.5 37.1372V6.5265C1.5 6.31669 1.63099 6.1292 1.82799 6.05702Z" fill="#156B55" stroke="#156B55" stroke-width="3"/>
<path d="M13.153 2.26755L25.153 6.12439C25.3598 6.19085 25.5 6.38321 25.5 6.60041V37.2745C25.5 37.6122 25.1722 37.8528 24.85 37.7515L12.85 33.978C12.6417 33.9125 12.5 33.7194 12.5 33.501V2.74357C12.5 2.40455 12.8302 2.16382 13.153 2.26755Z" fill="#156B55" stroke="#156B55" stroke-width="3"/>
<path d="M25.8318 6.9385L35.8318 3.36712C36.1575 3.25083 36.5 3.49223 36.5 3.838V32.7682C36.5 32.9693 36.3796 33.1508 36.1943 33.2289L26.1943 37.4466C25.8647 37.5856 25.5 37.3436 25.5 36.9859V7.40937C25.5 7.19807 25.6328 7.00957 25.8318 6.9385Z" fill="#156B55" stroke="#156B55" stroke-width="3"/>
<line x1="12.5" y1="6.55671e-08" x2="12.5" y2="39" stroke="white" stroke-width="3"/>
<path d="M26 1.5L26 40.5" stroke="white" stroke-width="3"/>
</svg>
